<?xml version="1.0" standalone="no"?><svg xmlns:xlink="http://www.w3.org/1999/xlink" xmlns="http://www.w3.org/2000/svg" viewBox="0 0 1920 1010.5320322443785" preserveAspectRatio="xMaxYMax slice"><g transform="scale(2.172252863809928)"><rect x="0" y="0" width="883.8800000000001" height="465.20000000000005" fill="#ffffff"/><circle cx="23.259999999999998" cy="23.259999999999998" r="4.65" fill="#FF3565"/><circle cx="69.78" cy="23.259999999999998" r="4.65" fill="#FF3565"/><circle cx="116.30000000000001" cy="23.259999999999998" r="4.65" fill="#FF3565"/><circle cx="162.82" cy="23.259999999999998" r="4.65" fill="#FF3565"/><circle cx="209.34" cy="23.259999999999998" r="4.65" fill="#183FE1"/><circle cx="255.86" cy="23.259999999999998" r="4.65" fill="#FF3565"/><circle cx="302.38" cy="23.259999999999998" r="4.65" fill="#183FE1"/><circle cx="348.9" cy="23.259999999999998" r="4.65" fill="#FF3565"/><circle cx="395.41999999999996" cy="23.259999999999998" r="4.65" fill="#FF3565"/><circle cx="441.94" cy="23.259999999999998" r="4.65" fill="#FF3565"/><circle cx="488.46" cy="23.259999999999998" r="4.65" fill="#FF3565"/><circle cx="534.98" cy="23.259999999999998" r="4.65" fill="#183FE1"/><circle cx="581.5" cy="23.259999999999998" r="4.65" fill="#FF3565"/><circle cx="628.02" cy="23.259999999999998" r="4.65" fill="#183FE1"/><circle cx="674.54" cy="23.259999999999998" r="4.65" fill="#183FE1"/><circle cx="721.06" cy="23.259999999999998" r="4.65" fill="#183FE1"/><circle cx="767.5799999999999" cy="23.259999999999998" r="4.65" fill="#183FE1"/><circle cx="814.1" cy="23.259999999999998" r="4.65" fill="#FF3565"/><circle cx="860.62" cy="23.259999999999998" r="4.65" fill="#183FE1"/><circle cx="23.259999999999998" cy="69.78" r="4.65" fill="#FF3565"/><circle cx="69.775" cy="69.775" r="5.215" fill="#FF3565"/><circle cx="116.3" cy="69.78" r="5.78" fill="#183FE1"/><circle cx="162.825" cy="69.785" r="6.345" fill="#183FE1"/><circle cx="209.34" cy="69.78" r="6.91" fill="#183FE1"/><circle cx="255.86499999999998" cy="69.785" r="7.475" fill="#FF3565"/><circle cx="302.375" cy="69.775" r="8.035" fill="#FF3565"/><circle cx="348.90000000000003" cy="69.78" r="8.6" fill="#FF3565"/><circle cx="395.42" cy="69.78" r="9.12" fill="#FF3565"/><circle cx="441.94" cy="69.78" r="9.12" fill="#FF3565"/><circle cx="488.46" cy="69.78" r="9.12" fill="#FF3565"/><circle cx="534.98" cy="69.78" r="9.12" fill="#FF3565"/><circle cx="581.5" cy="69.78" r="8.6" fill="#FF3565"/><circle cx="628.015" cy="69.775" r="8.035" fill="#183FE1"/><circle cx="674.5450000000001" cy="69.785" r="7.475" fill="#183FE1"/><circle cx="721.06" cy="69.78" r="6.91" fill="#183FE1"/><circle cx="767.585" cy="69.785" r="6.345" fill="#FF3565"/><circle cx="814.1" cy="69.78" r="5.78" fill="#FF3565"/><circle cx="860.615" cy="69.775" r="5.215" fill="#183FE1"/><circle cx="23.259999999999998" cy="116.30000000000001" r="4.65" fill="#183FE1"/><circle cx="69.78" cy="116.3" r="5.78" fill="#FF3565"/><circle cx="116.3" cy="116.3" r="6.91" fill="#183FE1"/><circle cx="162.815" cy="116.295" r="8.035" fill="#183FE1"/><circle cx="209.345" cy="116.305" r="9.165" fill="#183FE1"/><circle cx="255.86499999999998" cy="116.305" r="10.295" fill="#183FE1"/><circle cx="302.38" cy="116.3" r="11.42" fill="#183FE1"/><circle cx="348.90000000000003" cy="116.3" r="12.55" fill="#183FE1"/><circle cx="395.42499999999995" cy="116.305" r="13.585" fill="#FF3565"/><circle cx="441.945" cy="116.305" r="13.585" fill="#183FE1"/><circle cx="488.465" cy="116.305" r="13.585" fill="#FF3565"/><circle cx="534.985" cy="116.305" r="13.585" fill="#FF3565"/><circle cx="581.5" cy="116.3" r="12.55" fill="#183FE1"/><circle cx="628.02" cy="116.3" r="11.42" fill="#183FE1"/><circle cx="674.545" cy="116.305" r="10.295" fill="#183FE1"/><circle cx="721.0649999999999" cy="116.305" r="9.165" fill="#183FE1"/><circle cx="767.5749999999999" cy="116.295" r="8.035" fill="#FF3565"/><circle cx="814.1" cy="116.3" r="6.91" fill="#FF3565"/><circle cx="860.62" cy="116.3" r="5.78" fill="#183FE1"/><circle cx="23.259999999999998" cy="162.82" r="4.65" fill="#FF3565"/><circle cx="69.785" cy="162.825" r="6.345" fill="#FF3565"/><circle cx="116.295" cy="162.815" r="8.035" fill="#FF3565"/><circle cx="162.82" cy="162.82" r="9.73" fill="#FF3565"/><circle cx="209.33999999999997" cy="162.82" r="11.42" fill="#FF3565"/><circle cx="255.865" cy="162.82500000000002" r="13.115" fill="#183FE1"/><circle cx="302.375" cy="162.815" r="14.805" fill="#FF3565"/><circle cx="348.9" cy="162.82" r="16.5" fill="#FF3565"/><circle cx="395.42" cy="162.82000000000002" r="18.05" fill="#183FE1"/><circle cx="441.94" cy="162.82000000000002" r="18.05" fill="#FF3565"/><circle cx="488.46000000000004" cy="162.82000000000002" r="18.05" fill="#FF3565"/><circle cx="534.9799999999999" cy="162.82000000000002" r="18.05" fill="#183FE1"/><circle cx="581.5" cy="162.82" r="16.5" fill="#FF3565"/><circle cx="628.015" cy="162.815" r="14.805" fill="#183FE1"/><circle cx="674.545" cy="162.82500000000002" r="13.115" fill="#183FE1"/><circle cx="721.06" cy="162.82" r="11.42" fill="#183FE1"/><circle cx="767.58" cy="162.82" r="9.73" fill="#FF3565"/><circle cx="814.0949999999999" cy="162.815" r="8.035" fill="#183FE1"/><circle cx="860.625" cy="162.825" r="6.345" fill="#183FE1"/><circle cx="23.259999999999998" cy="209.34" r="4.65" fill="#FF3565"/><circle cx="69.78" cy="209.34" r="6.91" fill="#183FE1"/><circle cx="116.305" cy="209.345" r="9.165" fill="#183FE1"/><circle cx="162.82" cy="209.33999999999997" r="11.42" fill="#FF3565"/><circle cx="209.34" cy="209.34" r="13.68" fill="#183FE1"/><circle cx="255.865" cy="209.345" r="15.935" fill="#FF3565"/><circle cx="302.38" cy="209.34" r="18.19" fill="#183FE1"/><circle cx="348.895" cy="209.33499999999998" r="20.445" fill="#183FE1"/><circle cx="395.41499999999996" cy="209.33499999999998" r="22.515" fill="#FF3565"/><circle cx="441.935" cy="209.33499999999998" r="22.515" fill="#FF3565"/><circle cx="488.455" cy="209.33499999999998" r="22.515" fill="#183FE1"/><circle cx="534.975" cy="209.33499999999998" r="22.515" fill="#183FE1"/><circle cx="581.495" cy="209.33499999999998" r="20.445" fill="#FF3565"/><circle cx="628.0200000000001" cy="209.34" r="18.19" fill="#183FE1"/><circle cx="674.545" cy="209.345" r="15.935" fill="#FF3565"/><circle cx="721.06" cy="209.34" r="13.68" fill="#FF3565"/><circle cx="767.5799999999999" cy="209.33999999999997" r="11.42" fill="#183FE1"/><circle cx="814.105" cy="209.345" r="9.165" fill="#183FE1"/><circle cx="860.62" cy="209.34" r="6.91" fill="#183FE1"/><circle cx="23.259999999999998" cy="255.86" r="4.65" fill="#183FE1"/><circle cx="69.78" cy="255.86" r="7" fill="#183FE1"/><circle cx="116.305" cy="255.86499999999998" r="9.355" fill="#FF3565"/><circle cx="162.82500000000002" cy="255.865" r="11.705" fill="#183FE1"/><circle cx="209.345" cy="255.865" r="14.055" fill="#183FE1"/><circle cx="255.865" cy="255.865" r="16.405" fill="#FF3565"/><circle cx="302.385" cy="255.865" r="18.755" fill="#FF3565"/><circle cx="348.89500000000004" cy="255.855" r="21.105" fill="#FF3565"/><circle cx="395.42" cy="255.85999999999999" r="23.26" fill="#183FE1"/><circle cx="441.94" cy="255.85999999999999" r="23.26" fill="#183FE1"/><circle cx="488.46" cy="255.85999999999999" r="23.26" fill="#FF3565"/><circle cx="534.98" cy="255.85999999999999" r="23.26" fill="#FF3565"/><circle cx="581.495" cy="255.855" r="21.105" fill="#FF3565"/><circle cx="628.025" cy="255.865" r="18.755" fill="#183FE1"/><circle cx="674.545" cy="255.865" r="16.405" fill="#FF3565"/><circle cx="721.0649999999999" cy="255.865" r="14.055" fill="#183FE1"/><circle cx="767.585" cy="255.865" r="11.705" fill="#183FE1"/><circle cx="814.105" cy="255.86499999999998" r="9.355" fill="#183FE1"/><circle cx="860.62" cy="255.86" r="7" fill="#183FE1"/><circle cx="23.259999999999998" cy="302.38" r="4.65" fill="#183FE1"/><circle cx="69.78" cy="302.38000000000005" r="6.91" fill="#183FE1"/><circle cx="116.305" cy="302.38500000000005" r="9.165" fill="#183FE1"/><circle cx="162.82" cy="302.38" r="11.42" fill="#183FE1"/><circle cx="209.34" cy="302.38" r="13.68" fill="#183FE1"/><circle cx="255.865" cy="302.385" r="15.935" fill="#FF3565"/><circle cx="302.38" cy="302.38" r="18.19" fill="#183FE1"/><circle cx="348.895" cy="302.375" r="20.445" fill="#FF3565"/><circle cx="395.41499999999996" cy="302.375" r="22.515" fill="#183FE1"/><circle cx="441.935" cy="302.375" r="22.515" fill="#183FE1"/><circle cx="488.455" cy="302.375" r="22.515" fill="#FF3565"/><circle cx="534.975" cy="302.375" r="22.515" fill="#FF3565"/><circle cx="581.495" cy="302.375" r="20.445" fill="#183FE1"/><circle cx="628.0200000000001" cy="302.38" r="18.19" fill="#FF3565"/><circle cx="674.545" cy="302.385" r="15.935" fill="#183FE1"/><circle cx="721.06" cy="302.38" r="13.68" fill="#183FE1"/><circle cx="767.5799999999999" cy="302.38" r="11.42" fill="#183FE1"/><circle cx="814.105" cy="302.38500000000005" r="9.165" fill="#FF3565"/><circle cx="860.62" cy="302.38000000000005" r="6.91" fill="#183FE1"/><circle cx="23.259999999999998" cy="348.9" r="4.65" fill="#FF3565"/><circle cx="69.785" cy="348.90500000000003" r="6.345" fill="#183FE1"/><circle cx="116.295" cy="348.89500000000004" r="8.035" fill="#FF3565"/><circle cx="162.82" cy="348.90000000000003" r="9.73" fill="#FF3565"/><circle cx="209.33999999999997" cy="348.90000000000003" r="11.42" fill="#FF3565"/><circle cx="255.865" cy="348.90500000000003" r="13.115" fill="#FF3565"/><circle cx="302.375" cy="348.895" r="14.805" fill="#183FE1"/><circle cx="348.9" cy="348.9" r="16.5" fill="#FF3565"/><circle cx="395.42" cy="348.90000000000003" r="18.05" fill="#183FE1"/><circle cx="441.94" cy="348.90000000000003" r="18.05" fill="#183FE1"/><circle cx="488.46000000000004" cy="348.90000000000003" r="18.05" fill="#FF3565"/><circle cx="534.9799999999999" cy="348.90000000000003" r="18.05" fill="#FF3565"/><circle cx="581.5" cy="348.9" r="16.5" fill="#FF3565"/><circle cx="628.015" cy="348.895" r="14.805" fill="#183FE1"/><circle cx="674.545" cy="348.90500000000003" r="13.115" fill="#FF3565"/><circle cx="721.06" cy="348.90000000000003" r="11.42" fill="#FF3565"/><circle cx="767.58" cy="348.90000000000003" r="9.73" fill="#FF3565"/><circle cx="814.0949999999999" cy="348.89500000000004" r="8.035" fill="#183FE1"/><circle cx="860.625" cy="348.90500000000003" r="6.345" fill="#183FE1"/><circle cx="23.259999999999998" cy="395.41999999999996" r="4.65" fill="#FF3565"/><circle cx="69.78" cy="395.41999999999996" r="5.78" fill="#FF3565"/><circle cx="116.3" cy="395.42" r="6.91" fill="#183FE1"/><circle cx="162.815" cy="395.415" r="8.035" fill="#FF3565"/><circle cx="209.345" cy="395.425" r="9.165" fill="#183FE1"/><circle cx="255.86499999999998" cy="395.425" r="10.295" fill="#183FE1"/><circle cx="302.38" cy="395.42" r="11.42" fill="#183FE1"/><circle cx="348.90000000000003" cy="395.42" r="12.55" fill="#FF3565"/><circle cx="395.42499999999995" cy="395.42499999999995" r="13.585" fill="#183FE1"/><circle cx="441.945" cy="395.42499999999995" r="13.585" fill="#183FE1"/><circle cx="488.465" cy="395.42499999999995" r="13.585" fill="#183FE1"/><circle cx="534.985" cy="395.42499999999995" r="13.585" fill="#183FE1"/><circle cx="581.5" cy="395.42" r="12.55" fill="#183FE1"/><circle cx="628.02" cy="395.42" r="11.42" fill="#FF3565"/><circle cx="674.545" cy="395.425" r="10.295" fill="#183FE1"/><circle cx="721.0649999999999" cy="395.425" r="9.165" fill="#183FE1"/><circle cx="767.5749999999999" cy="395.415" r="8.035" fill="#183FE1"/><circle cx="814.1" cy="395.42" r="6.91" fill="#FF3565"/><circle cx="860.62" cy="395.41999999999996" r="5.78" fill="#FF3565"/><circle cx="23.259999999999998" cy="441.94" r="4.65" fill="#FF3565"/><circle cx="69.775" cy="441.935" r="5.215" fill="#FF3565"/><circle cx="116.3" cy="441.94" r="5.78" fill="#FF3565"/><circle cx="162.825" cy="441.94500000000005" r="6.345" fill="#FF3565"/><circle cx="209.34" cy="441.94" r="6.91" fill="#183FE1"/><circle cx="255.86499999999998" cy="441.94500000000005" r="7.475" fill="#FF3565"/><circle cx="302.375" cy="441.935" r="8.035" fill="#183FE1"/><circle cx="348.90000000000003" cy="441.94" r="8.6" fill="#183FE1"/><circle cx="395.42" cy="441.94" r="9.12" fill="#183FE1"/><circle cx="441.94" cy="441.94" r="9.12" fill="#183FE1"/><circle cx="488.46" cy="441.94" r="9.12" fill="#FF3565"/><circle cx="534.98" cy="441.94" r="9.12" fill="#183FE1"/><circle cx="581.5" cy="441.94" r="8.6" fill="#FF3565"/><circle cx="628.015" cy="441.935" r="8.035" fill="#FF3565"/><circle cx="674.5450000000001" cy="441.94500000000005" r="7.475" fill="#183FE1"/><circle cx="721.06" cy="441.94" r="6.91" fill="#FF3565"/><circle cx="767.585" cy="441.94500000000005" r="6.345" fill="#FF3565"/><circle cx="814.1" cy="441.94" r="5.78" fill="#FF3565"/><circle cx="860.615" cy="441.935" r="5.215" fill="#183FE1"/></g></svg>